<svg xmlns="http://www.w3.org/2000/svg" width="33.003" height="33.003" viewBox="0 0 33.003 33.003">
  <g id="compass" transform="translate(0.5 0.5)">
    <g id="Group_6" data-name="Group 6">
      <g id="Group_5" data-name="Group 5">
        <path id="Path_12" data-name="Path 12" d="M16,0A16,16,0,1,0,32,16,16,16,0,0,0,16,0Zm0,30.97A14.969,14.969,0,1,1,30.97,16,14.969,14.969,0,0,1,16,30.97Z" fill="#818181" stroke="#818181" stroke-width="1"/>
      </g>
    </g>
    <g id="Group_8" data-name="Group 8" transform="translate(8.185 8.186)">
      <g id="Group_7" data-name="Group 7">
        <path id="Path_13" data-name="Path 13" d="M142.2,126.923a.516.516,0,0,0-.45,0h0l-9.829,4.77c-.015.007-.024.023-.038.031a.6.6,0,0,0-.17.17c-.009.014-.024.023-.031.038l-4.771,9.829a.516.516,0,0,0,.69.69l9.829-4.77c.015-.007.024-.023.038-.031a.6.6,0,0,0,.17-.17c.009-.014.024-.023.031-.038l4.771-9.829A.516.516,0,0,0,142.2,126.923Zm-13.71,13.948,3.8-7.837,4.033,4.033Zm8.568-4.534-4.035-4.032,7.836-3.8Z" transform="translate(-126.861 -126.871)" fill="#818181" stroke="#818181" stroke-width="1"/>
      </g>
    </g>
  </g>
</svg>
