<svg id="image-library" xmlns="http://www.w3.org/2000/svg" width="32.003" height="32.003" viewBox="0 0 32.003 32.003">
  <path id="Path_14" data-name="Path 14" d="M32,0H7.532V3.766H3.766V7.532H0V32H24.471V28.237h3.766V24.471H32ZM22.6,30.128H1.875V9.407H22.6Zm3.766-3.766H24.471V7.532H5.641V5.641H26.362ZM30.128,22.6H28.237V3.766H9.407V1.875H30.128Z" fill="#818181"/>
  <path id="Path_15" data-name="Path 15" d="M153.446,220.282a2.824,2.824,0,0,0,2.821-2.821V213.7a2.821,2.821,0,0,0-5.641,0v3.766A2.824,2.824,0,0,0,153.446,220.282ZM152.5,213.7a.945.945,0,0,1,1.891,0v3.766a.945.945,0,1,1-1.891,0Z" transform="translate(-141.21 -197.694)" fill="#818181"/>
  <path id="Path_16" data-name="Path 16" d="M96.962,322.836a6.594,6.594,0,0,0,6.586-6.586h-1.875a4.711,4.711,0,0,1-9.423,0H90.375A6.594,6.594,0,0,0,96.962,322.836Z" transform="translate(-84.726 -296.483)" fill="#818181"/>
</svg>
