<svg id="Capa_1" enable-background="new 0 0 512 512" height="512" viewBox="0 0 512 512" width="512" xmlns="http://www.w3.org/2000/svg"><g><path d="m512 0h-391.5v60.25h-60.25v60.25h-60.25v391.5h391.5v-60.25h60.25v-60.25h60.25zm-150.5 482h-331.5v-331.5h331.5zm60.25-60.25h-30.25v-301.25h-301.25v-30.25h331.5zm60.25-60.25h-30.25v-301.25h-301.25v-30.25h331.5z"/><path d="m195.75 361.375c24.882 0 45.125-20.243 45.125-45.125v-60.25c0-24.882-20.243-45.125-45.125-45.125s-45.125 20.243-45.125 45.125v60.25c0 24.882 20.243 45.125 45.125 45.125zm-15.125-105.375c0-8.34 6.785-15.125 15.125-15.125s15.125 6.785 15.125 15.125v60.25c0 8.34-6.785 15.125-15.125 15.125s-15.125-6.785-15.125-15.125z"/><path d="m195.75 421.625c58.104 0 105.375-47.271 105.375-105.375h-30c0 41.562-33.813 75.375-75.375 75.375s-75.375-33.813-75.375-75.375h-30c0 58.104 47.271 105.375 105.375 105.375z"/></g></svg>