<svg id="shuffle" xmlns="http://www.w3.org/2000/svg" width="30.285" height="28.454" viewBox="0 0 30.285 28.454">
  <g id="Group_10" data-name="Group 10">
    <g id="Group_9" data-name="Group 9">
      <path id="Path_24" data-name="Path 24" d="M24.277,107.127a1.064,1.064,0,0,0,.76.317,1.045,1.045,0,0,0,.742-.3l4.284-4.211a1.058,1.058,0,0,0,.315-.764,1.1,1.1,0,0,0-.315-.764l-4.284-4.211a1.065,1.065,0,0,0-1.5.012,1.078,1.078,0,0,0,.012,1.509l2.423,2.385H24.024a5.514,5.514,0,0,1-4.235-1.988L10.455,86.343a7.635,7.635,0,0,0-6.231-3.249H1.157a1.065,1.065,0,0,0,0,2.131H4.223a5.513,5.513,0,0,1,4.513,2.36L18.108,100.4c.012.019.025.031.037.05a7.6,7.6,0,0,0,5.885,2.789h2.689L24.3,105.624A1.054,1.054,0,0,0,24.277,107.127Z" transform="translate(-0.094 -78.989)" fill="#404040"/>
      <path id="Path_25" data-name="Path 25" d="M273.1,19.2,268.908,15.1a1.033,1.033,0,1,0-1.449,1.473l2.386,2.338h-2.615a7.407,7.407,0,0,0-5.722,2.693.336.336,0,0,0-.036.048l-1.707,2.326a1.03,1.03,0,0,0,.222,1.443,1.045,1.045,0,0,0,.607.2,1.014,1.014,0,0,0,.829-.421l1.689-2.3a5.334,5.334,0,0,1,4.117-1.923h2.615l-2.386,2.338a1.033,1.033,0,0,0,1.449,1.473l4.189-4.105a1.045,1.045,0,0,0,0-1.479Z" transform="translate(-243.125 -14.806)" fill="#404040"/>
      <path id="Path_26" data-name="Path 26" d="M10.068,297.634l1.5-2.032a1.032,1.032,0,0,0-1.665-1.22l-1.5,2.05c-.006.012-.012.018-.018.03a5.38,5.38,0,0,1-4.37,2.248H1.028a1.031,1.031,0,0,0,0,2.062H4.009A7.428,7.428,0,0,0,10.068,297.634Z" transform="translate(0 -276.393)" stroke-width="10000" fill="#404040"/>
    </g>
  </g>
</svg>
